<?xml version="1.0" encoding="UTF-8" standalone="no"?>
<!DOCTYPE svg PUBLIC "-//W3C//DTD SVG 1.1//EN"
 "http://www.w3.org/Graphics/SVG/1.1/DTD/svg11.dtd">
<!-- Generated by graphviz version 2.38.0 (20140413.2041)
 -->
<!-- Title: %3 Pages: 1 -->
<svg width="513pt" height="287pt"
 viewBox="0.00 0.00 512.86 287.00" xmlns="http://www.w3.org/2000/svg" xmlns:xlink="http://www.w3.org/1999/xlink">
<g id="graph0" class="graph" transform="scale(1 1) rotate(0) translate(4 283)">
<title>%3</title>
<polygon fill="white" stroke="none" points="-4,4 -4,-283 508.862,-283 508.862,4 -4,4"/>
<!-- Object -->
<g id="node1" class="node"><title>Object</title>
<ellipse fill="none" stroke="black" cx="58.4948" cy="-220" rx="39.7935" ry="18"/>
<text text-anchor="middle" x="58.4948" y="-216.3" font-family="Open Sans" font-size="14.00">Object</text>
</g>
<!-- Throwable -->
<g id="node2" class="node"><title>Throwable</title>
<ellipse fill="none" stroke="black" cx="58.4948" cy="-166" rx="58.4896" ry="18"/>
<text text-anchor="middle" x="58.4948" y="-162.3" font-family="Open Sans" font-size="14.00">Throwable</text>
</g>
<!-- Object&#45;&gt;Throwable -->
<g id="edge1" class="edge"><title>Object&#45;&gt;Throwable</title>
<path fill="none" stroke="black" d="M58.4948,-201.79C58.4948,-199.308 58.4948,-196.826 58.4948,-194.344"/>
<polygon fill="black" stroke="black" points="61.9949,-194.141 58.4948,-184.141 54.9949,-194.141 61.9949,-194.141"/>
</g>
<!-- Error -->
<g id="node3" class="node"><title>Error</title>
<ellipse fill="none" stroke="black" cx="58.4948" cy="-85" rx="33.5952" ry="18"/>
<text text-anchor="middle" x="58.4948" y="-81.3" font-family="Open Sans" font-size="14.00">Error</text>
</g>
<!-- Throwable&#45;&gt;Error -->
<g id="edge2" class="edge"><title>Throwable&#45;&gt;Error</title>
<path fill="none" stroke="black" d="M58.4948,-147.799C58.4948,-136.258 58.4948,-124.718 58.4948,-113.177"/>
<polygon fill="black" stroke="black" points="61.9949,-113.035 58.4948,-103.035 54.9949,-113.035 61.9949,-113.035"/>
</g>
<!-- Exception -->
<g id="node4" class="node"><title>Exception</title>
<ellipse fill="none" stroke="black" cx="214.734" cy="-180" rx="54.6905" ry="18"/>
<text text-anchor="middle" x="214.734" y="-176.3" font-family="Open Sans" font-size="14.00">Exception</text>
</g>
<!-- Throwable&#45;&gt;Exception -->
<g id="edge3" class="edge"><title>Throwable&#45;&gt;Exception</title>
<path fill="none" stroke="black" d="M114.743,-171.015C126.764,-172.106 139.557,-173.267 151.817,-174.38"/>
<polygon fill="black" stroke="black" points="151.685,-177.882 161.961,-175.301 152.318,-170.911 151.685,-177.882"/>
</g>
<!-- AssertError -->
<g id="node5" class="node"><title>AssertError</title>
<ellipse fill="none" stroke="black" cx="214.734" cy="-126" rx="61.99" ry="18"/>
<text text-anchor="middle" x="214.734" y="-122.3" font-family="Open Sans" font-size="14.00">AssertError</text>
</g>
<!-- Error&#45;&gt;AssertError -->
<g id="edge4" class="edge"><title>Error&#45;&gt;AssertError</title>
<path fill="none" stroke="black" d="M89.2337,-92.9052C108.919,-98.138 135.329,-105.158 158.759,-111.387"/>
<polygon fill="black" stroke="black" points="158.027,-114.813 168.59,-114 159.825,-108.048 158.027,-114.813"/>
</g>
<!-- RangeError -->
<g id="node6" class="node"><title>RangeError</title>
<ellipse fill="none" stroke="black" cx="214.734" cy="-72" rx="61.99" ry="18"/>
<text text-anchor="middle" x="214.734" y="-68.3" font-family="Open Sans" font-size="14.00">RangeError</text>
</g>
<!-- Error&#45;&gt;RangeError -->
<g id="edge5" class="edge"><title>Error&#45;&gt;RangeError</title>
<path fill="none" stroke="black" d="M92.205,-82.243C107.65,-80.9413 126.699,-79.3357 145.097,-77.7851"/>
<polygon fill="black" stroke="black" points="145.553,-81.2591 155.224,-76.9315 144.965,-74.2839 145.553,-81.2591"/>
</g>
<!-- other1 -->
<g id="node7" class="node"><title>other1</title>
<ellipse fill="none" stroke="black" cx="214.734" cy="-18" rx="27" ry="18"/>
<text text-anchor="middle" x="214.734" y="-14.3" font-family="Open Sans" font-size="14.00">...</text>
</g>
<!-- Error&#45;&gt;other1 -->
<g id="edge6" class="edge"><title>Error&#45;&gt;other1</title>
<path fill="none" stroke="black" d="M85.311,-73.7857C111.854,-62.2558 153.236,-44.28 181.816,-31.8648"/>
<polygon fill="black" stroke="black" points="183.569,-34.9195 191.346,-27.725 180.78,-28.4991 183.569,-34.9195"/>
</g>
<!-- ErrnoException -->
<g id="node8" class="node"><title>ErrnoException</title>
<ellipse fill="none" stroke="black" cx="408.67" cy="-261" rx="79.0865" ry="18"/>
<text text-anchor="middle" x="408.67" y="-257.3" font-family="Open Sans" font-size="14.00">ErrnoException</text>
</g>
<!-- Exception&#45;&gt;ErrnoException -->
<g id="edge7" class="edge"><title>Exception&#45;&gt;ErrnoException</title>
<path fill="none" stroke="black" d="M240.789,-196.122C259.858,-207.857 287.066,-223.473 312.479,-234 322.442,-238.128 333.244,-241.854 343.873,-245.129"/>
<polygon fill="black" stroke="black" points="342.975,-248.513 353.558,-248.008 344.97,-241.803 342.975,-248.513"/>
</g>
<!-- FileException -->
<g id="node9" class="node"><title>FileException</title>
<ellipse fill="none" stroke="black" cx="408.67" cy="-207" rx="69.5877" ry="18"/>
<text text-anchor="middle" x="408.67" y="-203.3" font-family="Open Sans" font-size="14.00">FileException</text>
</g>
<!-- Exception&#45;&gt;FileException -->
<g id="edge8" class="edge"><title>Exception&#45;&gt;FileException</title>
<path fill="none" stroke="black" d="M265.162,-186.953C287.03,-190.029 313.151,-193.704 337.021,-197.062"/>
<polygon fill="black" stroke="black" points="336.705,-200.552 347.095,-198.479 337.68,-193.62 336.705,-200.552"/>
</g>
<!-- WindowsException -->
<g id="node10" class="node"><title>WindowsException</title>
<ellipse fill="none" stroke="black" cx="408.67" cy="-153" rx="96.3833" ry="18"/>
<text text-anchor="middle" x="408.67" y="-149.3" font-family="Open Sans" font-size="14.00">WindowsException</text>
</g>
<!-- Exception&#45;&gt;WindowsException -->
<g id="edge9" class="edge"><title>Exception&#45;&gt;WindowsException</title>
<path fill="none" stroke="black" d="M265.162,-173.047C282.282,-170.639 302.01,-167.863 321.223,-165.161"/>
<polygon fill="black" stroke="black" points="321.792,-168.615 331.207,-163.756 320.816,-161.683 321.792,-168.615"/>
</g>
<!-- other2 -->
<g id="node11" class="node"><title>other2</title>
<ellipse fill="none" stroke="black" cx="408.67" cy="-99" rx="27" ry="18"/>
<text text-anchor="middle" x="408.67" y="-95.3" font-family="Open Sans" font-size="14.00">...</text>
</g>
<!-- Exception&#45;&gt;other2 -->
<g id="edge10" class="edge"><title>Exception&#45;&gt;other2</title>
<path fill="none" stroke="black" d="M250.464,-166.176C259.153,-162.283 268.318,-157.791 276.479,-153 293.726,-142.874 294.557,-134.878 312.479,-126 331.441,-116.607 354.196,-110.001 372.703,-105.676"/>
<polygon fill="black" stroke="black" points="373.491,-109.087 382.496,-103.505 371.975,-102.252 373.491,-109.087"/>
</g>
</g>
</svg>
